<?xml version="1.0" ?><!DOCTYPE svg  PUBLIC '-//W3C//DTD SVG 1.1//EN'  'http://www.w3.org/Graphics/SVG/1.1/DTD/svg11.dtd'><svg enable-background="new 0 0 512 512" id="Layer_1" version="1.1" viewBox="0 0 512 512" xml:space="preserve" xmlns="http://www.w3.org/2000/svg" xmlns:xlink="http://www.w3.org/1999/xlink"><g><path d="M427.5,134.1h-63.7c-5.8,0-10.5-4.7-10.5-10.5   V97.9c0-5.8,4.7-10.5,10.5-10.5h63.7c5.8,0,10.5,4.7,10.5,10.5v25.8C438,129.4,433.3,134.1,427.5,134.1z" fill="#FBC858" stroke="#000000" stroke-miterlimit="10" stroke-width="8"/><path d="M293.1,100.1v-0.6c0-16.9-13.7-30.5-30.5-30.5   H107.4c-16.9,0-30.5,13.7-30.5,30.5v0.6c0,3.2-2.6,5.8-5.8,5.8H41.2c-19,0-34.4,15.4-34.4,34.4v267.5c0,19,15.4,34.4,34.4,34.4   h431.2c19,0,34.4-15.4,34.4-34.4V140.3c0-19-15.4-34.4-34.4-34.4H299C295.7,105.9,293.1,103.3,293.1,100.1z" fill="#FBC858" stroke="#000000" stroke-miterlimit="10" stroke-width="8"/><g><circle cx="188" cy="277" fill="#FFE235" r="122" stroke="#000000" stroke-miterlimit="10" stroke-width="8"/><circle cx="188" cy="277" fill="#FBC858" r="20" stroke="#000000" stroke-miterlimit="10" stroke-width="8"/></g><path d="M457.6,191.9h-66.9c-4.9,0-8.9-4-8.9-8.9v-28.9   c0-4.9,4-8.9,8.9-8.9h66.9c4.9,0,8.9,4,8.9,8.9V183C466.5,188,462.5,191.9,457.6,191.9z" fill="#FF1901" stroke="#000000" stroke-miterlimit="10" stroke-width="8"/></g></svg>